<svg xmlns="http://www.w3.org/2000/svg" width="64" height="64" viewBox="0 0 64 64">
  <defs>
    <linearGradient id="cloud" x1="0%" y1="0%" x2="0%" y2="100%">
      <stop offset="0%" stop-color="#b0c4de"/>
      <stop offset="100%" stop-color="#778899"/>
    </linearGradient>
    <linearGradient id="drop" x1="0%" y1="0%" x2="0%" y2="100%">
      <stop offset="0%" stop-color="#87ceeb"/>
      <stop offset="100%" stop-color="#4a90d9"/>
    </linearGradient>
  </defs>
  <!-- Cloud -->
  <circle cx="24" cy="20" r="10" fill="url(#cloud)"/>
  <circle cx="36" cy="18" r="12" fill="url(#cloud)"/>
  <circle cx="46" cy="22" r="9" fill="url(#cloud)"/>
  <rect x="14" y="20" width="42" height="10" rx="2" fill="url(#cloud)"/>
  <!-- Rain drops -->
  <path d="M20 38 L18 46 Q18 48 20 48 Q22 48 22 46 Z" fill="url(#drop)"/>
  <path d="M32 36 L30 44 Q30 46 32 46 Q34 46 34 44 Z" fill="url(#drop)"/>
  <path d="M44 38 L42 46 Q42 48 44 48 Q46 48 46 46 Z" fill="url(#drop)"/>
  <path d="M26 46 L24 54 Q24 56 26 56 Q28 56 28 54 Z" fill="url(#drop)"/>
  <path d="M38 46 L36 54 Q36 56 38 56 Q40 56 40 54 Z" fill="url(#drop)"/>
</svg>
